<svg id="visual" viewBox="0 0 960 300" width="960" height="300" xmlns="http://www.w3.org/2000/svg" xmlns:xlink="http://www.w3.org/1999/xlink" version="1.1"><rect x="0" y="0" width="960" height="300" fill="#202731"></rect><path d="M0 144L22.8 142.3C45.7 140.7 91.3 137.3 137 140.3C182.7 143.3 228.3 152.7 274 151.7C319.7 150.7 365.3 139.3 411.2 132.3C457 125.3 503 122.7 548.8 125C594.7 127.3 640.3 134.7 686 141.2C731.7 147.7 777.3 153.3 823 149.8C868.7 146.3 914.3 133.7 937.2 127.3L960 121L960 301L937.2 301C914.3 301 868.7 301 823 301C777.3 301 731.7 301 686 301C640.3 301 594.7 301 548.8 301C503 301 457 301 411.2 301C365.3 301 319.7 301 274 301C228.3 301 182.7 301 137 301C91.3 301 45.7 301 22.8 301L0 301Z" fill="#7b32fa"></path><path d="M0 191L22.8 185.2C45.7 179.3 91.3 167.7 137 164.2C182.7 160.7 228.3 165.3 274 166.3C319.7 167.3 365.3 164.7 411.2 163.5C457 162.3 503 162.7 548.8 163.3C594.7 164 640.3 165 686 165C731.7 165 777.3 164 823 167.7C868.7 171.3 914.3 179.7 937.2 183.8L960 188L960 301L937.2 301C914.3 301 868.7 301 823 301C777.3 301 731.7 301 686 301C640.3 301 594.7 301 548.8 301C503 301 457 301 411.2 301C365.3 301 319.7 301 274 301C228.3 301 182.7 301 137 301C91.3 301 45.7 301 22.8 301L0 301Z" fill="#c723d6"></path><path d="M0 182L22.8 188.3C45.7 194.7 91.3 207.3 137 210.2C182.7 213 228.3 206 274 205C319.7 204 365.3 209 411.2 208.5C457 208 503 202 548.8 199.2C594.7 196.3 640.3 196.7 686 194.2C731.7 191.7 777.3 186.3 823 185.3C868.7 184.3 914.3 187.7 937.2 189.3L960 191L960 301L937.2 301C914.3 301 868.7 301 823 301C777.3 301 731.7 301 686 301C640.3 301 594.7 301 548.8 301C503 301 457 301 411.2 301C365.3 301 319.7 301 274 301C228.3 301 182.7 301 137 301C91.3 301 45.7 301 22.8 301L0 301Z" fill="#ec39b7"></path><path d="M0 243L22.8 242.3C45.7 241.7 91.3 240.3 137 238C182.7 235.7 228.3 232.3 274 231.8C319.7 231.3 365.3 233.7 411.2 235.3C457 237 503 238 548.8 234.8C594.7 231.7 640.3 224.3 686 224.7C731.7 225 777.3 233 823 234.3C868.7 235.7 914.3 230.3 937.2 227.7L960 225L960 301L937.2 301C914.3 301 868.7 301 823 301C777.3 301 731.7 301 686 301C640.3 301 594.7 301 548.8 301C503 301 457 301 411.2 301C365.3 301 319.7 301 274 301C228.3 301 182.7 301 137 301C91.3 301 45.7 301 22.8 301L0 301Z" fill="#fc5ea1"></path><path d="M0 268L22.8 269.3C45.7 270.7 91.3 273.3 137 275C182.7 276.7 228.3 277.3 274 272.8C319.7 268.3 365.3 258.7 411.2 256.7C457 254.7 503 260.3 548.8 264.7C594.7 269 640.3 272 686 274C731.7 276 777.3 277 823 277.8C868.7 278.7 914.3 279.3 937.2 279.7L960 280L960 301L937.2 301C914.3 301 868.7 301 823 301C777.3 301 731.7 301 686 301C640.3 301 594.7 301 548.8 301C503 301 457 301 411.2 301C365.3 301 319.7 301 274 301C228.3 301 182.7 301 137 301C91.3 301 45.7 301 22.8 301L0 301Z" fill="#ff0066"></path></svg>