<svg id="visual" viewBox="0 0 960 300" width="960" height="300" xmlns="http://www.w3.org/2000/svg" xmlns:xlink="http://www.w3.org/1999/xlink" version="1.1"><rect x="0" y="0" width="960" height="300" fill="#202731"></rect><path d="M0 199L22.8 196.2C45.7 193.3 91.3 187.7 137 186.7C182.7 185.7 228.3 189.3 274 194.5C319.7 199.7 365.3 206.3 411.2 210.8C457 215.3 503 217.7 548.8 216.3C594.7 215 640.3 210 686 204.8C731.7 199.7 777.3 194.3 823 194C868.7 193.7 914.3 198.3 937.2 200.7L960 203L960 301L937.2 301C914.3 301 868.7 301 823 301C777.3 301 731.7 301 686 301C640.3 301 594.7 301 548.8 301C503 301 457 301 411.2 301C365.3 301 319.7 301 274 301C228.3 301 182.7 301 137 301C91.3 301 45.7 301 22.8 301L0 301Z" fill="#fa7268"></path><path d="M0 232L22.8 228.2C45.7 224.3 91.3 216.7 137 212.8C182.7 209 228.3 209 274 211.5C319.7 214 365.3 219 411.2 218.5C457 218 503 212 548.8 208.2C594.7 204.3 640.3 202.7 686 203C731.7 203.3 777.3 205.7 823 205.5C868.7 205.3 914.3 202.7 937.2 201.3L960 200L960 301L937.2 301C914.3 301 868.7 301 823 301C777.3 301 731.7 301 686 301C640.3 301 594.7 301 548.8 301C503 301 457 301 411.2 301C365.3 301 319.7 301 274 301C228.3 301 182.7 301 137 301C91.3 301 45.7 301 22.8 301L0 301Z" fill="#fd6053"></path><path d="M0 247L22.8 242.3C45.7 237.7 91.3 228.3 137 226.7C182.7 225 228.3 231 274 233.8C319.7 236.7 365.3 236.3 411.2 238.8C457 241.3 503 246.7 548.8 246.2C594.7 245.7 640.3 239.3 686 236.3C731.7 233.3 777.3 233.7 823 235C868.7 236.3 914.3 238.7 937.2 239.8L960 241L960 301L937.2 301C914.3 301 868.7 301 823 301C777.3 301 731.7 301 686 301C640.3 301 594.7 301 548.8 301C503 301 457 301 411.2 301C365.3 301 319.7 301 274 301C228.3 301 182.7 301 137 301C91.3 301 45.7 301 22.8 301L0 301Z" fill="#ff4c3d"></path><path d="M0 244L22.8 247.5C45.7 251 91.3 258 137 261.3C182.7 264.7 228.3 264.3 274 263.3C319.7 262.3 365.3 260.7 411.2 259.8C457 259 503 259 548.8 259.3C594.7 259.7 640.3 260.3 686 261.5C731.7 262.7 777.3 264.3 823 265.5C868.7 266.7 914.3 267.3 937.2 267.7L960 268L960 301L937.2 301C914.3 301 868.7 301 823 301C777.3 301 731.7 301 686 301C640.3 301 594.7 301 548.8 301C503 301 457 301 411.2 301C365.3 301 319.7 301 274 301C228.3 301 182.7 301 137 301C91.3 301 45.7 301 22.8 301L0 301Z" fill="#ff3325"></path><path d="M0 286L22.8 284.8C45.7 283.7 91.3 281.3 137 277.3C182.7 273.3 228.3 267.7 274 266C319.7 264.3 365.3 266.7 411.2 270.5C457 274.3 503 279.7 548.8 279.8C594.7 280 640.3 275 686 273.5C731.7 272 777.3 274 823 275.7C868.7 277.3 914.3 278.7 937.2 279.3L960 280L960 301L937.2 301C914.3 301 868.7 301 823 301C777.3 301 731.7 301 686 301C640.3 301 594.7 301 548.8 301C503 301 457 301 411.2 301C365.3 301 319.7 301 274 301C228.3 301 182.7 301 137 301C91.3 301 45.7 301 22.8 301L0 301Z" fill="#ff0000"></path></svg>